<?xml version="1.0" encoding="UTF-8" standalone="no"?>
<!-- Created with Inkscape (http://www.inkscape.org/) -->

<svg
   width="590.91333"
   height="439.10678"
   viewBox="0 0 590.91333 439.10678"
   version="1.1"
   id="svg5"
   inkscape:version="1.2 (dc2aeda, 2022-05-15)"
   sodipodi:docname="code.svg"
   xml:space="preserve"
   xmlns:inkscape="http://www.inkscape.org/namespaces/inkscape"
   xmlns:sodipodi="http://sodipodi.sourceforge.net/DTD/sodipodi-0.dtd"
   xmlns="http://www.w3.org/2000/svg"
   xmlns:svg="http://www.w3.org/2000/svg"><sodipodi:namedview
     id="namedview7"
     pagecolor="#ffffff"
     bordercolor="#000000"
     borderopacity="0.25"
     inkscape:showpageshadow="2"
     inkscape:pageopacity="0.0"
     inkscape:pagecheckerboard="0"
     inkscape:deskcolor="#d1d1d1"
     inkscape:document-units="px"
     showgrid="false"
     inkscape:zoom="1.2361274"
     inkscape:cx="230.55876"
     inkscape:cy="207.90737"
     inkscape:window-width="1920"
     inkscape:window-height="958"
     inkscape:window-x="0"
     inkscape:window-y="25"
     inkscape:window-maximized="0"
     inkscape:current-layer="layer1" /><defs
     id="defs2" /><g
     inkscape:label="Layer 1"
     inkscape:groupmode="layer"
     id="layer1"
     transform="translate(-841.99839,-218.04867)"><path
       style="fill:#3a9668;stroke:#181123;stroke-width:10.08;stroke-linejoin:round;stroke-dasharray:none;stroke-opacity:1;fill-opacity:1"
       d="m 855.08985,320.35533 c -6.5334,91.55843 -23.99329,180.31804 28.9365,181.37225 43.48797,0.86615 -39.64214,0.65702 10.70342,130.08431 18.72825,20.39214 69.58978,17.20829 124.84723,2.10983 1.501,-0.41011 4.8643,-16.63146 6.3712,-17.05892 1.401,-0.39745 0.9453,15.00014 2.3506,14.58808 29.5082,-8.65245 101.0441,-18.7816 172.3431,-30.83987 3.4952,-0.5911 10.2256,-20.29895 13.7146,-20.89938 2.6287,-0.45238 2.0184,18.20469 4.6387,17.74696 41.389,-7.23006 81.4609,-15.12992 111.8241,-23.7894 29.2262,-19.28702 11.612,-96.80415 22.601,-153.00058 72.3037,-29.29477 91.5576,-72.91428 59.8525,-110.50762 26.5931,-33.50089 -10.54,-78.60661 -16.9766,-82.83814 -16.3208,-10.06642 -107.2232,-0.76736 -200.7769,13.06183 -4.7609,0.70376 4.9173,13.72959 0.2677,12.459 -7.2406,-1.97862 -25.3743,-8.76157 -30.666,-7.82522 -97.926,17.32763 -190.79045,34.07223 -193.60804,38.64191 -5.17326,8.39022 3.90736,95.6218 -1.73841,106.29713 -0.84656,1.60072 -8.19314,0.8736 -9.31083,0.9997 -5.46039,0.61606 1.10909,-88.29132 -7.51041,-98.21106 -7.93355,-9.13031 -97.3561,20.49905 -97.86346,27.60919 z"
       id="path1261"
       sodipodi:nodetypes="sscssssssccccssssssss" /><path
       id="text1059"
       style="font-style:italic;font-variant:normal;font-weight:bold;font-stretch:normal;font-size:192px;font-family:'Operator Mono';-inkscape-font-specification:'Operator Mono Bold Italic';fill:#ffffff;fill-opacity:1;stroke:#181123;stroke-width:6.48;stroke-linejoin:round;stroke-dasharray:none;stroke-opacity:1"
       d="m 1254.1924,251.09531 c -9.4215,1.83032 -18.8899,3.42219 -28.2953,5.3309 -5.0019,1.3534 -9.0913,6.09222 -9.056,11.37533 -0.1141,4.44014 0.1363,8.87899 0.138,13.31928 0.2712,15.68935 0.4778,31.38128 0.8494,47.06773 0.5761,4.43527 3.4837,8.79391 7.886,10.1517 3.2376,1.28695 6.7964,0.68971 10.0841,-0.0552 5.7008,-1.0926 11.4429,-1.9969 17.0988,-3.30605 4.4193,-1.52625 8.0066,-5.55659 8.5168,-10.27162 3.6339,-17.23057 7.3378,-34.44684 10.8459,-51.70297 0.2637,-3.91855 -0.1993,-7.8388 -0.4133,-11.74834 -0.546,-4.67057 -3.8347,-9.11901 -8.4824,-10.34642 -2.992,-0.92122 -6.1774,-0.46998 -9.172,0.18605 z m 88.9257,-7.42121 c -12.8796,2.59057 -25.2683,8.63973 -34.4029,18.20224 -8.7079,8.99957 -14.103,21.40626 -13.7828,34.01028 0.1013,9.89915 4.0785,19.71243 10.9861,26.81833 7.0161,7.46815 16.1035,12.53542 25.2521,16.92436 3.7293,1.79909 7.499,3.51516 11.1943,5.38421 -2.1357,0.28023 -4.3884,0.46698 -6.4376,0.55509 -8.1409,0.33897 -16.2887,-0.12317 -24.3994,-0.81538 -2.4205,-0.25175 -4.8989,0.0509 -7.1068,1.08224 -2.9271,1.28984 -5.2726,3.81635 -6.2578,6.86935 -1.2534,3.49926 -0.673,7.26347 -0.8955,10.89465 -0.083,7.07488 -0.3154,14.15125 -0.2291,21.22596 0.572,4.54108 3.6301,8.96027 8.1492,10.2683 3.5402,1.20884 7.321,0.59302 10.9781,0.65694 16.181,-0.36712 32.5155,-2.30411 47.8099,-7.82624 10.2403,-3.74926 20.0676,-9.31999 27.3834,-17.53601 6.6113,-7.41439 10.7984,-17.24482 10.465,-27.26691 -0.226,-9.19973 -4.2017,-18.18601 -10.6931,-24.68418 -6.0939,-6.36073 -13.7477,-10.93166 -21.5154,-14.947 2.8117,-0.77274 5.5073,-2.06879 8.1376,-3.102 5.6653,-2.28339 11.3781,-4.46311 16.9522,-6.96374 4.1357,-2.3659 7.0002,-7.2529 6.1634,-12.07147 -0.4905,-3.67589 -2.3709,-6.94369 -3.8076,-10.3042 -4.0383,-8.4947 -9.7429,-16.4699 -17.6314,-21.77397 -8.2571,-5.56865 -18.5396,-7.68324 -28.3849,-6.73976 -2.6622,0.22047 -5.3072,0.61967 -7.927,1.13891 z m -420.30878,80.01681 c -9.26743,1.77947 -18.57158,3.37352 -27.82054,5.24517 -4.81209,1.48518 -8.76508,6.05 -8.80391,11.1893 -0.16716,5.86371 -0.11613,11.73111 -0.20166,17.5963 -0.28537,34.7762 -0.5946,69.55308 -0.84513,104.32905 0.34648,4.50223 3.07436,9.03921 7.44284,10.62383 3.15621,1.39231 6.73013,1.04498 9.98977,0.24149 24.84227,-4.60403 49.69481,-9.15912 74.52476,-13.82595 4.54054,-1.29719 8.54188,-5.18848 9.05421,-10.01637 0.38832,-4.38589 0.17322,-8.79414 0.31604,-13.18996 0.0198,-4.54544 0.20421,-9.11278 -0.0136,-13.66057 -0.64516,-4.38071 -3.64038,-8.59857 -8.01367,-9.85169 -3.13004,-1.22101 -6.56009,-0.62469 -9.73172,0.0894 -10.5504,1.95056 -21.10081,3.90112 -31.65111,5.85167 0.19875,-27.8156 0.45608,-55.62734 0.59011,-83.44263 -0.4019,-4.49016 -3.19209,-8.98684 -7.57951,-10.4984 -2.30649,-0.84242 -4.83451,-1.21148 -7.25687,-0.68065 z m 259.42588,-47.96274 c -29.7327,5.5448 -59.4874,10.97669 -89.2132,16.55579 -4.0351,1.13489 -7.5046,4.33173 -8.7203,8.37533 -1.5609,-2.19205 -3.9378,-3.74299 -6.5607,-4.33063 -2.2361,-0.64473 -4.6066,-0.54817 -6.8533,-0.0129 -24.3572,4.54994 -48.7364,8.98499 -73.08533,13.57611 -4.86605,1.38085 -8.93411,5.87003 -9.08861,11.03876 -0.18491,5.67702 -0.11582,11.35874 -0.2049,17.03757 -0.28774,35.04277 -0.59957,70.08617 -0.85239,105.12859 0.34849,4.50543 3.08003,9.05068 7.45586,10.62936 3.1538,1.38584 6.72117,1.03799 9.97677,0.23597 23.5837,-4.37135 47.1778,-8.69277 70.7489,-13.12789 4.7084,-1.32384 8.7899,-5.48488 9.1413,-10.49528 0.7281,-8.22208 1.5279,-16.44246 2.07,-24.67786 0,-4.77322 -2.9065,-9.61614 -7.4872,-11.27695 -3.0134,-1.27858 -6.417,-1.08498 -9.5258,-0.28121 -10.367,1.92886 -20.7351,3.85183 -31.1049,5.76594 0.01,-0.84773 0.018,-1.69554 0.026,-2.54328 10.2677,-1.91353 20.5531,-3.74494 30.7984,-5.76927 4.4774,-1.39117 8.3696,-5.31953 8.7988,-10.12177 0.3564,-4.53766 0.1997,-9.0943 0.3579,-13.63991 0.031,-3.27878 0.222,-6.5736 -0.076,-9.84258 -0.7261,-4.34002 -3.8136,-8.42438 -8.1612,-9.60506 -3.1823,-1.16722 -6.6186,-0.47964 -9.8206,0.21649 -7.1028,1.31315 -14.2054,2.62629 -21.3081,3.93944 0.01,-0.84773 0.018,-1.69554 0.026,-2.54327 12.7212,-2.36818 25.4608,-4.65129 38.1599,-7.13028 3.7562,-1.18847 7.0751,-4.07211 8.3283,-7.86392 1.4549,2.05373 3.6393,3.5069 6.049,4.19092 3.0464,1.01661 6.3038,0.44327 9.3511,-0.24714 4.2436,-0.78456 8.4872,-1.56912 12.7308,-2.35367 -0.1992,27.81554 -0.4554,55.62721 -0.5907,83.44252 0.4,4.54146 3.2613,9.08429 7.7222,10.54901 3.1672,1.3379 6.704,0.85203 9.9471,0.0867 8.3505,-1.56216 16.7235,-3.02168 25.046,-4.72204 4.3594,-1.42223 8.1593,-5.23683 8.6231,-9.93209 0.39,-4.25379 0.1356,-8.52991 0.2647,-12.79361 0.1935,-25.38898 0.3869,-50.77806 0.5804,-76.16703 7.4132,-1.38785 14.8481,-2.67698 22.2324,-4.20796 4.3969,-1.42073 8.212,-5.29325 8.6456,-10.02503 0.3632,-4.37595 0.1655,-8.77186 0.3016,-13.15657 0.022,-4.51842 0.2023,-9.04562 -0.014,-13.55905 -0.6493,-4.39417 -3.6656,-8.64496 -8.0711,-9.86263 -2.1273,-0.70958 -4.4398,-0.95212 -6.6452,-0.4796 z m 166.5848,14.72995 c 1.221,-0.22574 2.5432,0.0618 3.3889,1.02009 1.4552,1.37151 2.3542,3.21032 3.3155,4.88293 -1.4687,-0.78588 -2.7838,-1.54241 -4.2209,-2.40756 -0.5176,-0.31617 -1.3165,-0.81769 -1.9292,-1.22315 -0.8181,-0.56673 -1.6303,-1.15376 -2.3617,-1.83088 0.5831,-0.21244 1.1956,-0.34093 1.8074,-0.44143 z M 962.65088,476.5458 c -14.26859,3.07089 -27.06675,11.58751 -36.2163,22.85608 -11.53858,14.05177 -18.11793,31.78775 -19.88152,49.79607 -1.47989,15.29085 0.27822,31.02971 6.0563,45.31959 4.03173,9.74564 10.60587,18.67405 19.58787,24.37554 9.25978,5.93386 20.53396,8.25785 31.4334,7.48943 12.51577,-0.74751 24.59283,-4.77279 35.92179,-9.96217 4.10208,-1.90988 8.20408,-3.87344 12.02438,-6.30622 3.5937,-2.77354 5.656,-7.52443 4.867,-12.04087 -0.4939,-7.40135 -0.8979,-14.80894 -1.4893,-22.20335 3.5754,9.05733 9.1551,17.55302 17.0539,23.39813 7.7088,5.74335 17.3096,8.8076 26.9083,8.80554 13.3907,0.22847 26.8658,-4.21493 37.3059,-12.64606 8.255,-6.55661 14.6836,-15.22273 19.1777,-24.72124 1.0326,-2.14865 1.9665,-4.3441 2.8175,-6.57083 -0.03,5.88059 -0.1346,11.7637 -0.099,17.64235 0.4152,4.55867 3.4224,9.11103 7.8306,10.52112 3.6617,1.43531 7.6284,0.58307 11.4166,0.34248 16.2125,-1.47032 32.4264,-5.20565 46.9355,-12.76467 14.0552,-7.30598 26.1911,-18.68734 33.3863,-32.8909 3.2233,-6.24559 5.5386,-12.94484 7.0066,-19.81388 -0.086,11.62074 -0.2055,23.24216 -0.2702,34.86247 0.3481,4.51028 3.086,9.05507 7.4651,10.63538 3.1532,1.37731 6.7149,1.03193 9.9676,0.23004 23.5837,-4.37135 47.1778,-8.69276 70.7489,-13.12788 4.6924,-1.32088 8.763,-5.45288 9.1318,-10.44562 0.7188,-7.89606 1.4327,-15.79407 2.0311,-23.69949 0.4296,-5.03236 -2.4465,-10.37309 -7.2526,-12.22521 -3.0441,-1.3451 -6.5149,-1.19114 -9.6765,-0.37304 -10.3755,1.95078 -20.7591,3.85829 -31.1405,5.7776 0.01,-0.84773 0.018,-1.69546 0.026,-2.54318 10.2677,-1.91353 20.5531,-3.74494 30.7984,-5.76927 4.4457,-1.38724 8.3245,-5.26574 8.7875,-10.03265 0.3785,-4.56814 0.2104,-9.15755 0.3714,-13.73469 0.028,-3.28594 0.2243,-6.58857 -0.082,-9.864 -0.735,-4.25639 -3.7064,-8.30466 -7.9723,-9.51124 -3.1236,-1.20897 -6.5437,-0.61866 -9.7069,0.0946 -7.2022,1.33153 -14.4044,2.66309 -21.6066,3.99462 0.01,-0.84783 0.018,-1.69556 0.026,-2.54327 12.7219,-2.36831 25.4622,-4.65152 38.1619,-7.13064 4.4824,-1.39159 8.3769,-5.32953 8.7977,-10.13755 0.3387,-4.30971 0.1142,-8.63639 0.2345,-12.95349 0,-4.43205 0.1589,-8.89532 -0.078,-13.33365 -0.6703,-4.49341 -3.8681,-8.78091 -8.3933,-9.9127 -2.3578,-0.78219 -4.9074,-0.7788 -7.3083,-0.1947 -24.3903,4.55709 -48.803,8.99832 -73.1855,13.59464 -4.8661,1.38095 -8.934,5.87012 -9.0886,11.03886 -0.185,5.67692 -0.1158,11.35862 -0.205,17.03747 -0.09,10.73534 -0.1799,21.47061 -0.2698,32.20595 -1.4325,-7.92971 -3.6356,-15.82232 -7.577,-22.89788 -4.0338,-7.45926 -9.9477,-13.97113 -17.297,-18.26652 -8.2333,-4.89842 -17.8553,-7.10136 -27.3798,-7.23657 -12.6792,-0.30296 -25.2023,2.46087 -37.2773,6.10005 -3.2593,1.01983 -6.5175,2.07871 -9.6722,3.38602 -4.2523,2.24997 -7.2011,7.03063 -6.7385,11.89773 -0.082,9.75987 -0.1643,19.51986 -0.2466,29.27975 -3.4315,-9.54308 -9.0404,-18.53472 -17.1254,-24.80273 -8.4162,-6.53983 -19.2279,-9.71009 -29.8372,-9.28046 -10.835,0.25992 -21.6342,3.47133 -30.6697,9.49974 -8.6299,5.63003 -15.61,13.56087 -20.7004,22.47821 -3.2781,5.67727 -5.8143,11.76845 -7.7051,18.04102 -2.3697,-7.31469 -5.6944,-14.49766 -10.9071,-20.23734 -4.78062,-5.30397 -11.13084,-9.25118 -18.13203,-10.7953 -6.92654,-1.59799 -14.17868,-1.1925 -21.09038,0.26829 z m 104.78822,29.54939 c 2.2408,3.81877 2.8724,8.28313 3.67,12.5665 1.3471,8.69012 1.5585,17.59864 0.2306,26.30433 -0.7303,4.28376 -1.8217,8.60427 -4.0296,12.38516 -0.45,0.69845 -1.0254,1.53175 -1.6944,1.91262 -1.4181,-2.33113 -2.0727,-5.02828 -2.7415,-7.64723 -0.3596,-1.49951 -0.6737,-3.29158 -0.9222,-4.92746 -0.095,-0.64658 -0.206,-1.39489 -0.2908,-2.07329 -0.3191,-2.43953 -0.5399,-4.72377 -0.6819,-7.18037 -0.3886,-6.7113 -0.085,-13.49303 1.3314,-20.07775 0.1667,-0.73128 0.4055,-1.75618 0.6448,-2.59008 0.9131,-2.99795 1.9422,-6.1395 4.1571,-8.44855 0.085,-0.0258 0.2605,-0.34338 0.3259,-0.22377 z m -101.64515,19.85286 c 0.3608,1.26285 0.70559,2.47486 0.99333,3.80461 0.63954,2.79857 0.96708,5.83645 1.7813,8.66292 1.41784,4.47644 5.59461,8.04995 10.3419,8.3502 3.40715,0.30344 6.69478,-0.86624 10.01786,-1.40749 6.51833,-1.31627 13.05936,-2.5275 19.54116,-4.01762 0.2646,9.48159 1.6543,18.94292 4.2728,28.06387 -1.6028,-2.44281 -4.1691,-4.22526 -7.044,-4.79012 -3.4942,-0.90779 -7.25493,-0.002 -10.24357,1.9284 -7.72544,3.94167 -15.71409,7.68467 -24.30198,9.26457 -2.64678,0.39782 -5.50019,0.66207 -8.026,-0.40624 -2.31699,-1.24523 -3.29121,-3.87606 -4.14017,-6.20726 -1.31504,-4.11236 -1.83677,-8.43932 -2.07721,-12.73601 -0.27794,-7.659 0.55954,-15.46748 3.31826,-22.65865 1.25532,-2.97967 2.73159,-6.08764 5.37586,-8.08272 0.16026,-0.20962 0.12442,0.16147 0.19037,0.23104 z m 204.02835,-37.25019 c 1.3885,0.95111 2.1574,2.54866 2.8599,4.02769 1.3401,3.25206 1.9439,6.745 2.4784,10.20386 0.041,0.37845 0.1536,1.13287 0.2067,1.66234 0.8257,7.5027 0.4353,15.26739 -2.0627,22.4378 -0.9311,2.59654 -2.184,5.09283 -3.8427,7.3029 0.1125,-15.21602 0.2251,-30.43216 0.3376,-45.64818 z"
       sodipodi:nodetypes="ccccccccccccccccccccccccccccccccccccccccscccccccccccccccsscccccccccccccccccccccccccccccccccccccccccccccccccccccccccccccccccccccccccccccccccccccccccccccccccccccccccccccccccccccccccccccccccccscccccccccccccccscccccccc" /><g
       style="fill:#000000"
       id="g4986"
       transform="matrix(0.17525807,-0.03361748,0.03361748,0.17525807,1178.6222,344.29248)"><g
         id="g4957">
	<g
   id="g4955">
		<g
   id="g4953">
			<path
   d="m 43,345.5 h 35 c 5.522,0 10,-4.477 10,-10 v -35 c 0,-5.523 -4.478,-10 -10,-10 H 43 c -5.522,0 -10,4.477 -10,10 v 35 c 0,5.523 4.478,10 10,10 z m 10,-35 h 15 v 15 H 53 Z"
   id="path4915" />
			<path
   d="m 110.625,345.5 h 35 c 5.522,0 10,-4.477 10,-10 v -35 c 0,-5.523 -4.478,-10 -10,-10 h -35 c -5.522,0 -10,4.477 -10,10 v 35 c 0,5.523 4.478,10 10,10 z m 10,-35 h 15 v 15 h -15 z"
   id="path4917" />
			<path
   d="m 178.25,345.5 h 35 c 5.522,0 10,-4.477 10,-10 v -35 c 0,-5.523 -4.478,-10 -10,-10 h -35 c -5.522,0 -10,4.477 -10,10 v 35 c 0,5.523 4.478,10 10,10 z m 10,-35 h 15 v 15 h -15 z"
   id="path4919" />
			<path
   d="M 110.625,408.5 H 213.25 c 5.522,0 10,-4.477 10,-10 v -35 c 0,-5.523 -4.478,-10 -10,-10 H 110.625 c -5.522,0 -10,4.477 -10,10 v 35 c 0,5.523 4.478,10 10,10 z m 10,-35 h 82.625 v 15 h -82.625 z"
   id="path4921" />
			<path
   d="m 245.25,345.5 h 35 c 5.522,0 10,-4.477 10,-10 v -35 c 0,-5.523 -4.478,-10 -10,-10 h -35 c -5.522,0 -10,4.477 -10,10 v 35 c 0,5.523 4.478,10 10,10 z m 10,-35 h 15 v 15 h -15 z"
   id="path4923" />
			<path
   d="m 355.375,345.5 h 35 c 5.522,0 10,-4.477 10,-10 v -35 c 0,-5.523 -4.478,-10 -10,-10 h -35 c -5.522,0 -10,4.477 -10,10 v 35 c 0,5.523 4.478,10 10,10 z m 10,-35 h 15 v 15 h -15 z"
   id="path4925" />
			<path
   d="m 423,345.5 h 35 c 5.522,0 10,-4.477 10,-10 v -35 c 0,-5.523 -4.478,-10 -10,-10 h -35 c -5.522,0 -10,4.477 -10,10 v 35 c 0,5.523 4.478,10 10,10 z m 10,-35 h 15 v 15 h -15 z"
   id="path4927" />
			<path
   d="m 43,408.5 h 35 c 5.522,0 10,-4.477 10,-10 v -35 c 0,-5.523 -4.478,-10 -10,-10 H 43 c -5.522,0 -10,4.477 -10,10 v 35 c 0,5.523 4.478,10 10,10 z m 10,-35 h 15 v 15 H 53 Z"
   id="path4929" />
			<path
   d="m 245.25,408.5 h 35 c 5.522,0 10,-4.477 10,-10 v -35 c 0,-5.523 -4.478,-10 -10,-10 h -35 c -5.522,0 -10,4.477 -10,10 v 35 c 0,5.523 4.478,10 10,10 z m 10,-35 h 15 v 15 h -15 z"
   id="path4931" />
			<path
   d="m 355.375,408.5 h 35 c 5.522,0 10,-4.477 10,-10 v -35 c 0,-5.523 -4.478,-10 -10,-10 h -35 c -5.522,0 -10,4.477 -10,10 v 35 c 0,5.523 4.478,10 10,10 z m 10,-35 h 15 v 15 h -15 z"
   id="path4933" />
			<path
   d="m 423,408.5 h 35 c 5.522,0 10,-4.477 10,-10 v -35 c 0,-5.523 -4.478,-10 -10,-10 h -35 c -5.522,0 -10,4.477 -10,10 v 35 c 0,5.523 4.478,10 10,10 z m 10,-35 h 15 v 15 h -15 z"
   id="path4935" />
			<path
   d="m 43,282.5 h 35 c 5.522,0 10,-4.477 10,-10 v -35 c 0,-5.523 -4.478,-10 -10,-10 H 43 c -5.522,0 -10,4.477 -10,10 v 35 c 0,5.523 4.478,10 10,10 z m 10,-35 h 15 v 15 H 53 Z"
   id="path4937" />
			<path
   d="m 110.625,282.5 h 35 c 5.522,0 10,-4.477 10,-10 v -35 c 0,-5.523 -4.478,-10 -10,-10 h -35 c -5.522,0 -10,4.477 -10,10 v 35 c 0,5.523 4.478,10 10,10 z m 10,-35 h 15 v 15 h -15 z"
   id="path4939" />
			<path
   d="m 178.25,282.5 h 35 c 5.522,0 10,-4.477 10,-10 v -35 c 0,-5.523 -4.478,-10 -10,-10 h -35 c -5.522,0 -10,4.477 -10,10 v 35 c 0,5.523 4.478,10 10,10 z m 10,-35 h 15 v 15 h -15 z"
   id="path4941" />
			<path
   d="m 245.25,282.5 h 35 c 5.522,0 10,-4.477 10,-10 v -35 c 0,-5.523 -4.478,-10 -10,-10 h -35 c -5.522,0 -10,4.477 -10,10 v 35 c 0,5.523 4.478,10 10,10 z m 10,-35 h 15 v 15 h -15 z"
   id="path4943" />
			<path
   d="m 355.375,282.5 h 35 c 5.522,0 10,-4.477 10,-10 v -35 c 0,-5.523 -4.478,-10 -10,-10 h -35 c -5.522,0 -10,4.477 -10,10 v 35 c 0,5.523 4.478,10 10,10 z m 10,-35 h 15 v 15 h -15 z"
   id="path4945" />
			<path
   d="m 423,282.5 h 35 c 5.522,0 10,-4.477 10,-10 v -35 c 0,-5.523 -4.478,-10 -10,-10 h -35 c -5.522,0 -10,4.477 -10,10 v 35 c 0,5.523 4.478,10 10,10 z m 10,-35 h 15 v 15 h -15 z"
   id="path4947" />
			<path
   d="m 214,96.5 c 5.522,0 10,-4.477 10,-10 v -13 c 0,-5.523 -4.478,-10 -10,-10 -5.522,0 -10,4.477 -10,10 v 13 c 0,5.523 4.478,10 10,10 z"
   id="path4949" />
			<path
   d="M 492,197.5 H 290 v -23 c 0,-23.71 -19.29,-43 -43,-43 -10.072,0 -18.885,-6.442 -21.928,-16.03 -1.671,-5.264 -7.289,-8.177 -12.557,-6.507 -5.264,1.671 -8.177,7.292 -6.506,12.557 5.69,17.932 22.163,29.98 40.99,29.98 12.683,0 23,10.318 23,23 v 23 H 10 c -5.522,0 -10,4.477 -10,10 v 221 c 0,5.523 4.478,10 10,10 h 482 c 5.522,0 10,-4.477 10,-10 v -221 c 0,-5.523 -4.478,-10 -10,-10 z m -10,221 H 20 v -201 h 462 z"
   id="path4951" />
		</g>
	</g>
</g></g></g></svg>
